<svg width="101" height="26" viewBox="0 0 101 26" fill="none" xmlns="http://www.w3.org/2000/svg">
<path fill-rule="evenodd" clip-rule="evenodd" d="M6.26798 0H3.42669C1.53418 0 0 1.53418 0 3.42669V6.26798L6.26798 0ZM0 11.4837V15.3654L9.63547 5.72996C10.3556 5.00982 11.5232 5.00982 12.2433 5.72996C12.9635 6.45009 12.9635 7.61766 12.2433 8.3378L0 20.5811V22.2667C0 22.8326 0.137159 23.3664 0.380045 23.8368L6.93124 17.2856C7.65137 16.5654 8.81894 16.5654 9.53908 17.2856C10.2592 18.0057 10.2592 19.1733 9.53908 19.8934L3.73909 25.6934H15.3704C18.899 25.6934 21.7595 22.8329 21.7595 19.3043V19.1015C21.7595 15.8168 19.0967 13.154 15.812 13.154H14.2605C14.1926 13.154 14.1375 13.099 14.1375 13.0311C14.1375 12.9632 14.1926 12.9082 14.2605 12.9082H15.812C19.0967 12.9082 21.7595 10.2454 21.7595 6.96072V6.57702C21.7595 2.94463 18.8148 0 15.1825 0H11.4837L0 11.4837Z" fill="#007AFF"/>
<path d="M25.7883 19.8467V7.00055H31.8336C34.5683 7.00055 35.9357 8.06207 35.9357 10.1851C35.9357 11.3966 35.354 12.2901 34.1905 12.8659C34.9701 13.0818 35.5579 13.4776 35.9537 14.0533C36.3495 14.6171 36.5474 15.3068 36.5474 16.1224C36.5474 17.3458 36.1096 18.2754 35.234 18.9111C34.3584 19.5349 33.2849 19.8467 32.0135 19.8467H25.7883ZM28.613 12.2002H31.4737C32.6252 12.2002 33.2009 11.6904 33.2009 10.6709C33.2009 9.68733 32.5532 9.19556 31.2578 9.19556H28.613V12.2002ZM28.613 17.6517H31.6357C33.027 17.6517 33.7227 17.088 33.7227 15.9605C33.7227 14.737 33.045 14.1253 31.6896 14.1253H28.613V17.6517ZM38.2585 19.8467V7.00055H40.8133V19.8467H38.2585ZM42.5371 15.2048C42.5371 13.7175 42.9749 12.53 43.8505 11.6424C44.7261 10.7429 45.8896 10.2931 47.341 10.2931C48.8043 10.2931 49.9738 10.7429 50.8494 11.6424C51.725 12.53 52.1628 13.7175 52.1628 15.2048C52.1628 16.6802 51.725 17.8676 50.8494 18.7672C49.9738 19.6548 48.8043 20.0986 47.341 20.0986C45.8896 20.0986 44.7261 19.6548 43.8505 18.7672C42.9749 17.8676 42.5371 16.6802 42.5371 15.2048ZM45.6137 13.0818C45.2659 13.6455 45.092 14.3532 45.092 15.2048C45.092 16.0564 45.2659 16.7641 45.6137 17.3279C45.9736 17.8916 46.5493 18.1735 47.341 18.1735C48.1446 18.1735 48.7203 17.8916 49.0682 17.3279C49.428 16.7641 49.6079 16.0564 49.6079 15.2048C49.6079 14.3532 49.428 13.6455 49.0682 13.0818C48.7203 12.506 48.1446 12.2182 47.341 12.2182C46.5493 12.2182 45.9736 12.506 45.6137 13.0818ZM62.6579 13.8195H60.157C59.9891 12.7519 59.3594 12.2182 58.2679 12.2182C57.5242 12.2182 56.9725 12.524 56.6126 13.1358C56.2648 13.7355 56.0909 14.4372 56.0909 15.2408C56.0909 16.0324 56.2588 16.7221 56.5947 17.3099C56.9425 17.8856 57.4823 18.1735 58.2139 18.1735C59.3894 18.1735 60.0671 17.5438 60.247 16.2843H62.7119C62.5439 17.5078 62.0642 18.4493 61.2725 19.109C60.4929 19.7687 59.4793 20.0986 58.2319 20.0986C56.8405 20.0986 55.7071 19.6548 54.8315 18.7672C53.9679 17.8796 53.536 16.7341 53.536 15.3308C53.536 13.8434 53.9559 12.632 54.7955 11.6964C55.6471 10.7608 56.8106 10.2931 58.2859 10.2931C59.4614 10.2931 60.4629 10.5989 61.2905 11.2106C62.1301 11.8224 62.5859 12.692 62.6579 13.8195ZM64.389 19.8467V7.00055H66.9439V13.8914L70.1644 10.5449H73.187L69.6786 13.9634L73.5829 19.8467H70.4883L67.9334 15.6906L66.9439 16.6442V19.8467H64.389ZM74.4864 19.8467V10.5449H76.9153V12.2722H76.9513C77.1912 11.6844 77.587 11.2106 78.1387 10.8508C78.6905 10.479 79.2842 10.2931 79.9199 10.2931C80.0878 10.2931 80.2738 10.323 80.4777 10.383V12.7579C80.2138 12.698 79.9079 12.668 79.5601 12.668C77.8808 12.668 77.0412 13.6635 77.0412 15.6546V19.8467H74.4864ZM80.8752 15.2048C80.8752 13.7175 81.313 12.53 82.1886 11.6424C83.0642 10.7429 84.2276 10.2931 85.679 10.2931C87.1423 10.2931 88.3118 10.7429 89.1874 11.6424C90.063 12.53 90.5008 13.7175 90.5008 15.2048C90.5008 16.6802 90.063 17.8676 89.1874 18.7672C88.3118 19.6548 87.1423 20.0986 85.679 20.0986C84.2276 20.0986 83.0642 19.6548 82.1886 18.7672C81.313 17.8676 80.8752 16.6802 80.8752 15.2048ZM83.9518 13.0818C83.6039 13.6455 83.43 14.3532 83.43 15.2048C83.43 16.0564 83.6039 16.7641 83.9518 17.3279C84.3116 17.8916 84.8873 18.1735 85.679 18.1735C86.4826 18.1735 87.0584 17.8916 87.4062 17.3279C87.766 16.7641 87.946 16.0564 87.946 15.2048C87.946 14.3532 87.766 13.6455 87.4062 13.0818C87.0584 12.506 86.4826 12.2182 85.679 12.2182C84.8873 12.2182 84.3116 12.506 83.9518 13.0818ZM92.2339 19.8467V7.00055H94.7887V19.8467H92.2339ZM96.8724 19.8467V7.00055H99.4273V19.8467H96.8724Z" fill="#007AFF"/>
</svg>
